HIERARCHY
ROOT Hips
{
	OFFSET	0.00	0.00	0.00
	CHANNELS 6 Xposition Yposition Zposition Zrotation Xrotation Yrotation
	JOINT LeftUpLeg
	{
		OFFSET	 0.126116	-0.014019	-0.065224
		CHANNELS 3 Zrotation Xrotation Yrotation
		JOINT LeftLeg
		{
			OFFSET	 0.000000	 0.000000	 0.569914
			CHANNELS 3 Zrotation Xrotation Yrotation
			JOINT LeftFoot
			{
				OFFSET	 0.000000	 0.000000	 0.544423
				CHANNELS 3 Zrotation Xrotation Yrotation
				JOINT LeftToeBase
				{
					OFFSET	 0.000000	 0.000000	 0.207117
					CHANNELS 3 Zrotation Xrotation Yrotation
					End Site
					{
						OFFSET	 0.000000	 0.000000	 0.207117
					}
				}
			}
		}
	}
	JOINT RightUpLeg
	{
		OFFSET	-0.124023	-0.008373	-0.065224
		CHANNELS 3 Zrotation Xrotation Yrotation
		JOINT RightLeg
		{
			OFFSET	 0.000000	 0.000000	 0.570047
			CHANNELS 3 Zrotation Xrotation Yrotation
			JOINT RightFoot
			{
				OFFSET	 0.000000	 0.000000	 0.544354
				CHANNELS 3 Zrotation Xrotation Yrotation
				JOINT RightToeBase
				{
					OFFSET	 0.000000	 0.000000	 0.207540
					CHANNELS 3 Zrotation Xrotation Yrotation
					End Site
					{
						OFFSET	 0.000000	 0.000000	 0.207540
					}
				}
			}
		}
	}
	JOINT Spine
	{
		OFFSET	 0.000184	-0.007763	 0.117403
		CHANNELS 3 Zrotation Xrotation Yrotation
		JOINT Spine1
		{
			OFFSET	 0.000000	 0.000000	 0.137269
			CHANNELS 3 Zrotation Xrotation Yrotation
			JOINT Spine2
			{
				OFFSET	 0.000000	 0.000000	 0.156879
				CHANNELS 3 Zrotation Xrotation Yrotation
				JOINT LeftShoulder
				{
					OFFSET	 0.080501	-0.002496	 0.160144
					CHANNELS 3 Zrotation Xrotation Yrotation
					JOINT LeftArm
					{
						OFFSET	 0.000000	 0.000000	 0.164363
						CHANNELS 3 Zrotation Xrotation Yrotation
						JOINT LeftForeArm
						{
							OFFSET	 0.000000	 0.000000	 0.364576
							CHANNELS 3 Zrotation Xrotation Yrotation
							JOINT LeftHand
							{
								OFFSET	 0.000000	 0.000000	 0.360812
								CHANNELS 3 Zrotation Xrotation Yrotation
								JOINT LeftHandIndex1
								{
									OFFSET	 0.000000	 0.000000	 0.086006
									CHANNELS 3 Zrotation Xrotation Yrotation
									JOINT LeftHandIndex2
									{
										OFFSET	 0.000000	 0.000000	 0.047236
										CHANNELS 3 Zrotation Xrotation Yrotation
										JOINT LeftHandIndex3
										{
											OFFSET	-0.004284	-0.000551	 0.038166
											CHANNELS 3 Zrotation Xrotation Yrotation
											End Site
											{
												OFFSET	-0.004284	-0.000551	 0.038166
											}
										}
									}
								}
							}
						}
					}
				}
				JOINT Neck
				{
					OFFSET	 0.000000	 0.000000	 0.176489
					CHANNELS 3 Zrotation Xrotation Yrotation
					JOINT Head
					{
						OFFSET	 0.000000	-0.001747	 0.077940
						CHANNELS 3 Zrotation Xrotation Yrotation
						End Site
						{
							OFFSET	 0.000000	-0.001747	 0.077940
						}
					}
				}
				JOINT RightShoulder
				{
					OFFSET	-0.080363	 0.000306	 0.159706
					CHANNELS 3 Zrotation Xrotation Yrotation
					JOINT RightArm
					{
						OFFSET	 0.000000	 0.000000	 0.164196
						CHANNELS 3 Zrotation Xrotation Yrotation
						JOINT RightForeArm
						{
							OFFSET	 0.000000	 0.000000	 0.365611
							CHANNELS 3 Zrotation Xrotation Yrotation
							JOINT RightHand
							{
								OFFSET	 0.000000	 0.000000	 0.360648
								CHANNELS 3 Zrotation Xrotation Yrotation
								JOINT RightHandIndex1
								{
									OFFSET	 0.000000	 0.000000	 0.069977
									CHANNELS 3 Zrotation Xrotation Yrotation
									JOINT RightHandIndex2
									{
										OFFSET	 0.000000	 0.000000	 0.052305
										CHANNELS 3 Zrotation Xrotation Yrotation
										JOINT RightHandIndex3
										{
											OFFSET	 0.009002	-0.000782	 0.042196
											CHANNELS 3 Zrotation Xrotation Yrotation
											End Site
											{
												OFFSET	 0.009002	-0.000782	 0.042196
											}
										}
									}
								}
							}
						}
					}
				}
			}
		}
	}
}
MOTION
Frames:    13
Frame Time: 0.03333334
-0.058911	-2.248658	 1.203204	 4.475623	-1.636743	-3.671548	 8.130226	-10.091040	-172.588900	 0.622157	-37.912510	 0.136601	 55.286780	 81.243030	-59.025560	-2.370664	 31.401740	-0.065102	-11.706110	-30.485490	-175.126600	 10.226210	-51.409660	 8.626457	 8.550707	 72.063000	-3.225472	 2.358250	 33.105480	 0.105673	-4.568521	 8.294233	 1.076625	 1.516473	 5.014046	 3.024552	-8.333627	-5.199626	-4.244740	-93.839580	 58.922090	 175.604000	 16.656230	 35.528030	-39.194250	-16.918440	 2.160672	-7.586539	-6.030014	-7.223349	-7.424718	-4.869288	 19.243650	-2.786478	-3.887936	 21.390760	 2.209261	-4.808248	 5.545567	 0.146966	-0.104955	-5.040440	 0.169326	-10.136430	 0.567899	 1.953497	 89.810000	 61.610050	-179.933600	-19.530060	 51.015450	 7.653851	 13.908840	 3.193312	 20.157560	 1.724379	 6.334337	-0.041701	 6.299826	 25.508070	-0.561447	 1.797286	 45.403880	-6.914321	 0.428837	 24.701940	 3.617946
-0.060077	-2.274914	 1.202365	 5.095022	-1.343843	-3.670195	 7.297329	-8.949243	-172.888100	 0.978526	-37.430210	 0.380365	 58.241070	 81.826010	-62.253580	-2.369569	 31.586870	-0.069283	-13.151270	-32.173340	-175.613800	 10.162720	-48.199150	 8.184876	 8.997237	 73.949780	-4.204081	 2.358887	 33.013050	 0.103519	-4.516414	 8.180984	 0.993644	 1.491876	 4.916432	 3.084476	-8.574747	-5.152073	-4.281766	-93.954130	 59.013690	 175.348200	 16.019040	 33.999500	-40.166670	-17.502780	 2.159796	-7.576047	-5.593373	-7.180096	-8.417857	-4.869017	 19.249360	-2.786540	-3.883335	 21.449580	 2.204595	-4.808273	 5.545339	 0.146975	-0.070646	-5.081389	 0.186812	-10.258860	 0.594307	 1.804022	 89.773980	 61.655830	 179.980600	-19.303630	 51.628530	 6.260176	 13.685250	 3.166677	 20.499360	 1.549689	 6.784383	-0.209453	 6.292625	 24.722890	-0.536261	 1.906053	 44.533980	-7.011425	 0.558962	 24.132590	 3.551732
-0.061090	-2.297790	 1.200994	 5.553295	-0.937693	-3.703583	 6.710322	-8.122631	-173.089600	 1.154837	-37.063140	 0.483457	 61.014340	 82.323430	-65.118320	-2.368782	 31.717180	-0.072242	-14.517680	-33.651760	-176.171200	 10.304860	-44.997720	 7.871049	 8.431630	 75.139660	-4.184247	 2.358977	 32.998710	 0.103193	-4.332074	 7.933419	 0.907471	 1.467904	 4.863770	 3.208725	-8.781969	-5.133430	-4.356683	-94.068370	 59.018170	 175.104000	 15.306330	 32.667970	-40.902260	-17.661750	 2.155275	-7.566743	-5.061779	-7.332285	-8.828330	-4.865490	 19.345160	-2.793964	-3.876880	 21.532180	 2.198037	-4.805563	 5.577342	 0.145107	-0.047071	-5.099051	 0.219681	-10.383850	 0.622774	 1.728677	 89.730640	 61.708250	 179.877000	-19.076440	 52.142440	 4.990742	 13.303690	 3.106488	 20.946000	 1.248958	 7.123729	-0.392400	 6.281182	 23.897390	-0.546763	 2.002435	 43.737610	-7.097065	 0.729890	 23.375810	 3.466376
-0.062361	-2.323802	 1.198833	 6.055243	-0.479474	-3.752007	 6.061187	-7.196048	-173.319300	 1.342663	-36.673790	 0.591291	 64.727420	 82.901050	-68.917230	-2.367896	 31.864150	-0.075576	-16.054350	-35.040190	-176.910200	 10.329270	-41.016080	 7.328176	 9.386994	 76.789000	-5.906846	 2.359117	 32.978680	 0.102730	-4.100802	 7.649744	 0.815035	 1.442385	 4.810644	 3.354524	-9.004290	-5.111166	-4.441622	-94.195460	 59.019040	 174.832600	 14.481860	 31.198280	-41.697760	-17.805970	 2.147386	-7.549838	-4.506982	-7.540281	-9.246253	-4.861240	 19.458890	-2.802571	-3.869443	 21.627140	 2.190473	-4.802295	 5.615778	 0.142853	-0.021566	-5.118736	 0.256921	-10.517440	 0.657016	 1.649463	 89.681140	 61.768330	 179.758100	-18.789480	 52.686120	 3.584783	 12.857330	 3.024561	 21.433650	 0.897851	 7.472913	-0.604623	 6.267920	 22.966750	-0.560653	 2.106402	 42.850490	-7.188984	 0.921769	 22.514260	 3.372789
-0.063301	-2.347527	 1.196470	 6.270267	-0.089348	-3.944746	 5.746086	-6.177014	-173.385300	 1.447897	-36.141740	 0.645974	 70.108340	 83.450190	-74.344140	-2.366605	 32.070850	-0.080291	-16.649920	-36.057140	-177.322500	 10.345510	-37.202560	 6.767205	 9.426918	 76.255190	-6.662791	 2.360358	 32.793000	 0.098426	-3.710255	 7.349455	 0.898843	 1.439552	 4.926685	 3.438811	-9.170080	-5.122635	-4.508832	-94.291250	 58.979180	 174.634200	 13.683130	 29.930650	-42.422530	-18.208220	 2.141127	-7.532971	-4.372530	-7.972616	-8.981215	-4.853038	 19.650500	-2.811527	-3.859333	 21.755650	 2.180210	-4.795960	 5.690333	 0.138482	-0.012578	-5.154226	 0.288586	-10.649790	 0.684324	 1.634349	 89.613280	 61.851730	 179.594400	-18.435650	 53.135550	 2.470737	 12.208690	 2.865109	 21.680080	 0.463044	 7.777578	-1.104870	 6.251441	 22.000330	-0.593986	 2.190606	 42.109720	-7.263071	 1.135309	 21.540670	 3.271480
-0.064533	-2.374096	 1.193435	 6.496663	 0.321288	-4.153886	 5.390350	-4.983154	-173.479600	 1.557664	-35.487110	 0.699562	 76.692590	 83.992930	-80.972430	-2.365011	 32.323920	-0.086077	-17.185630	-36.919970	-177.784500	 10.313030	-32.933300	 6.072076	 10.429810	 75.933010	-8.428027	 2.361254	 32.659320	 0.095334	-3.275955	 7.025404	 0.991072	 1.427954	 5.029440	 3.520853	-9.339354	-5.117944	-4.571523	-94.392900	 58.935750	 174.424500	 12.844880	 28.645810	-43.144910	-18.622770	 2.132721	-7.512574	-4.247400	-8.450729	-8.686186	-4.843812	 19.861710	-2.820751	-3.847930	 21.900250	 2.168617	-4.788681	 5.776032	 0.133449	-0.002272	-5.194130	 0.321773	-10.785230	 0.715410	 1.615921	 89.540250	 61.940820	 179.417100	-18.005150	 53.569570	 1.362651	 11.493720	 2.667530	 21.688300	-0.011095	 8.069294	-1.667447	 6.232558	 20.931260	-0.631476	 2.285636	 41.248830	-7.346280	 1.367954	 20.462410	 3.164601
-0.065964	-2.400946	 1.190108	 6.569573	 0.518208	-4.335914	 5.122136	-3.443125	-173.634900	 1.608583	-34.657830	 0.714256	 80.544460	 84.421040	-84.794820	-2.361201	 32.906330	-0.099493	-16.729100	-37.497930	-177.891900	 9.963862	-29.240590	 5.284327	 17.570030	 78.462420	-16.105460	 2.356070	 33.420720	 0.113025	-2.839134	 6.782960	 1.109457	 1.421944	 5.316318	 3.504506	-9.453845	-5.137247	-4.577810	-94.445660	 58.894340	 174.318800	 11.913560	 27.649740	-43.782060	-18.930700	 2.121912	-7.490589	-4.279917	-8.661137	-8.386593	-4.832677	 20.081180	-2.821938	-3.833064	 22.087840	 2.153517	-4.777307	 5.909635	 0.125573	 0.013317	-5.245697	 0.334663	-10.878210	 0.734154	 1.571037	 89.482620	 61.996000	 179.276800	-17.402880	 53.896710	 0.396522	 10.694110	 2.431791	 21.292490	-0.400186	 8.154274	-2.450598	 6.210315	 19.772420	-0.679149	 2.439901	 39.793000	-7.480356	 1.618226	 19.282340	 3.053825
-0.067759	-2.428383	 1.185725	 6.657001	 0.685302	-4.512530	 4.822667	-1.833910	-173.819700	 1.671977	-33.865920	 0.735251	 84.998510	 84.848690	-89.227880	-2.356366	 33.606220	-0.115798	-16.151950	-38.794150	-177.950400	 9.821106	-26.927020	 4.834456	 28.900950	 80.712630	-27.917990	 2.350160	 34.234310	 0.132204	-2.415486	 6.593882	 1.219886	 1.411289	 5.550254	 3.500620	-9.557983	-5.145041	-4.586875	-94.495080	 58.862520	 174.219000	 11.036150	 26.781730	-44.407190	-19.172520	 2.107833	-7.463134	-4.307206	-8.968216	-8.164527	-4.824849	 20.286080	-2.837846	-3.817948	 22.277630	 2.138169	-4.765000	 6.053813	 0.117041	 0.032738	-5.297812	 0.346416	-10.956960	 0.764492	 1.509994	 89.427670	 62.037500	 179.142900	-16.748660	 54.161490	-0.668189	 9.887416	 2.205168	 20.975860	-0.762045	 8.156532	-3.218359	 6.188513	 18.598770	-0.717923	 2.589616	 38.306770	-7.609214	 1.867104	 18.088560	 2.948100
-0.069998	-2.456666	 1.180355	 6.816539	 0.688586	-4.655944	 4.432069	-0.007767	-174.080300	 1.788209	-33.067790	 0.783361	 85.892110	 85.231860	-90.118390	-2.346511	 34.924420	-0.147063	-15.910370	-40.648230	-178.120200	 10.211170	-26.014980	 4.859084	 32.431860	 80.577460	-32.105870	 2.341768	 35.308330	 0.157965	-2.123484	 6.696851	 1.285775	 1.393979	 5.546288	 3.574469	-9.640094	-5.120526	-4.632864	-94.524210	 58.883510	 174.153500	 10.137290	 26.196510	-44.956320	-19.114190	 2.089718	-7.434021	-4.296142	-9.628322	-8.368247	-4.835274	 20.406020	-2.933173	-3.802229	 22.474050	 2.122203	-4.748116	 6.251200	 0.105306	 0.072372	-5.351536	 0.351556	-10.988810	 0.847788	 1.360417	 89.388270	 62.003080	 179.048900	-15.959750	 54.330740	-2.093087	 9.154469	 2.004987	 21.000480	-0.968020	 7.838962	-3.900392	 6.174225	 17.377400	-0.707166	 2.743624	 36.698200	-7.740355	 2.119921	 16.855660	 2.845361
-0.072620	-2.485685	 1.174494	 6.970521	 0.678053	-4.731394	 4.012052	 1.904472	-174.422900	 1.936020	-32.156560	 0.842841	 83.118900	 85.631160	-87.342540	-2.332896	 36.549190	-0.186717	-15.641400	-42.701160	-178.347200	 10.529250	-25.882530	 4.979330	 33.382360	 80.189010	-33.509140	 2.335413	 36.066140	 0.176476	-1.846938	 6.782127	 1.310926	 1.375176	 5.527520	 3.612866	-9.711440	-5.069016	-4.661409	-94.543180	 58.937010	 174.104600	 9.313433	 25.736840	-45.460040	-19.049310	 2.069921	-7.403804	-4.323668	-10.368690	-8.619330	-4.847295	 20.509580	-3.033859	-3.787141	 22.661720	 2.106874	-4.729742	 6.465455	 0.092499	 0.111918	-5.403409	 0.345965	-11.002960	 0.937910	 1.227430	 89.358150	 61.938260	 178.978500	-15.193750	 54.425770	-3.506480	 8.428162	 1.802166	 21.100800	-1.188399	 7.453671	-4.541037	 6.165888	 16.160010	-0.667252	 2.875708	 35.250360	-7.851584	 2.366038	 15.636420	 2.749974
-0.075600	-2.513062	 1.169154	 7.096215	 0.632715	-4.607988	 3.578315	 3.743551	-174.942600	 2.167385	-31.182250	 0.939802	 68.988660	 85.825520	-73.213410	-2.309953	 38.913970	-0.246890	-15.373130	-44.235050	-178.717400	 10.428240	-25.945070	 4.944883	 24.641210	 78.189350	-24.583150	 2.337183	 35.858390	 0.171375	-1.646914	 6.812491	 1.215912	 1.369995	 5.548566	 3.553345	-9.765951	-4.983172	-4.652573	-94.531300	 59.078820	 174.106200	 8.621872	 25.488170	-45.868640	-18.995270	 2.049754	-7.371628	-4.458787	-11.180670	-8.984582	-4.863339	 20.557740	-3.141296	-3.775244	 22.808820	 2.094798	-4.708701	 6.709941	 0.077790	 0.147934	-5.445811	 0.310092	-10.981340	 1.037050	 1.149273	 89.357030	 61.791870	 178.981300	-14.594500	 54.402990	-4.729275	 7.831199	 1.626778	 21.292940	-1.430435	 6.966876	-5.017338	 6.175867	 15.055200	-0.546855	 2.952148	 34.382260	-7.915395	 2.580693	 14.558270	 2.670616
-0.079173	-2.545362	 1.163690	 7.243510	 0.536701	-4.375272	 3.152268	 6.082217	-175.652700	 2.271225	-29.604590	 0.948031	 46.098270	 85.393170	-50.134780	-2.272701	 42.079980	-0.332865	-14.900570	-45.219150	-179.069400	 9.828786	-25.879070	 4.663805	 16.782810	 75.685460	-15.939600	 2.338980	 35.645370	 0.166170	-1.444320	 6.845895	 1.011450	 1.339850	 5.518156	 3.499492	-9.819101	-4.841697	-4.653641	-94.511560	 59.223500	 174.124200	 7.967232	 25.283490	-46.163050	-18.955690	 2.024595	-7.329911	-4.599395	-12.028720	-9.307389	-4.879252	 20.615290	-3.251579	-3.763522	 22.953370	 2.082898	-4.682948	 7.007996	 0.059727	 0.190104	-5.480851	 0.274278	-10.946990	 1.154748	 1.123483	 89.355740	 61.632570	 178.984100	-13.964540	 54.333680	-5.857920	 7.164915	 1.430422	 21.245730	-1.756646	 6.376483	-5.488198	 6.197339	 13.813840	-0.376266	 3.032320	 33.447090	-7.981843	 2.813022	 13.376410	 2.588837
-0.083217	-2.579779	 1.159214	 7.404336	 0.308276	-3.874355	 2.935159	 8.912820	-176.748300	 1.939692	-27.317500	 0.728443	 22.739670	 83.205570	-26.050660	-2.201428	 46.739930	-0.473743	-13.684250	-44.864300	-179.188600	 7.794076	-25.459830	 3.698717	 8.258484	 72.002720	-4.801764	 2.340224	 35.496570	 0.162535	-1.300750	 6.882148	 0.524406	 1.270028	 5.541928	 3.489364	-9.872353	-4.663759	-4.712005	-94.472820	 59.322300	 174.190800	 7.509681	 25.082610	-46.279410	-19.000870	 1.997640	-7.283554	-4.692344	-12.567810	-9.361687	-4.888824	 20.682450	-3.328955	-3.756990	 23.033630	 2.076267	-4.651293	 7.372572	 0.037435	 0.236948	-5.477425	 0.252204	-10.898370	 1.288716	 1.280196	 89.354390	 61.490910	 178.986000	-13.460080	 54.216130	-6.583671	 6.551390	 1.259483	 20.862550	-2.234805	 5.728508	-5.762059	 6.245949	 12.588300	-0.099653	 3.099370	 32.645200	-8.037032	 3.022265	 12.299230	 2.518933
